# xmcd
#
# Track frame offsets:
#	150
#	14950
#	37074
#	58142
#	75019
#	91119
#	110324
#	128930
#	139657
#	154407
#	173347
#
# Disc length: 2473 seconds
#
# Revision: 0
# Processed by: cddbd v1.5.2PL0 Copyright (c) Steve Scherf et al.
# Submitted via: audiograbber 1.83.01
#
DISCID=8709a70b
DTITLE=Magic Sam Blues Band - West Side Soul
DYEAR=1967
DGENRE=Blues
TTITLE0=That's All I Need
TTITLE1=I Need You So Bad
TTITLE2=I Feel So Good
TTITLE3=All Of Your Love
TTITLE4=I Don't Want No Woman
TTITLE5=Sweet Home Chicago
TTITLE6=I Found A New Love
TTITLE7=Every Night And Every Day
TTITLE8=Lookin' Good (instrumental)
TTITLE9=My Love Will Never Die
TTITLE10=Mama, Mama Talk To Your Daughter
EXTD=
EXTT0=
EXTT1=
EXTT2=
EXTT3=
EXTT4=
EXTT5=
EXTT6=
EXTT7=
EXTT8=
EXTT9=
EXTT10=
PLAYORDER=
